<svg class="rich-terminal" viewBox="0 0 897 538.0" xmlns="http://www.w3.org/2000/svg">
    <!-- Generated with Rich https://www.textualize.io -->
    <style>

    @font-face {
        font-family: "Fira Code";
        src: local("FiraCode-Regular"),
                url("https://cdnjs.cloudflare.com/ajax/libs/firacode/6.2.0/woff2/FiraCode-Regular.woff2") format("woff2"),
                url("https://cdnjs.cloudflare.com/ajax/libs/firacode/6.2.0/woff/FiraCode-Regular.woff") format("woff");
        font-style: normal;
        font-weight: 400;
    }
    @font-face {
        font-family: "Fira Code";
        src: local("FiraCode-Bold"),
                url("https://cdnjs.cloudflare.com/ajax/libs/firacode/6.2.0/woff2/FiraCode-Bold.woff2") format("woff2"),
                url("https://cdnjs.cloudflare.com/ajax/libs/firacode/6.2.0/woff/FiraCode-Bold.woff") format("woff");
        font-style: bold;
        font-weight: 700;
    }

    .terminal-matrix {
        font-family: Fira Code, monospace;
        font-size: 20px;
        line-height: 24.4px;
        font-variant-east-asian: full-width;
    }

    .terminal-title {
        font-size: 18px;
        font-weight: bold;
        font-family: arial;
    }

    .terminal-r1 { fill: #c5c8c6 }
.terminal-r2 { fill: #24d6a8 }
.terminal-r3 { fill: #a9bccd }
.terminal-r4 { fill: #d9f7ff;font-weight: bold }
.terminal-r5 { fill: #25405c }
.terminal-r6 { fill: #6e8aa1 }
.terminal-r7 { fill: #00ff00 }
.terminal-r8 { fill: #1a2c41 }
.terminal-r9 { fill: #0b1117 }
.terminal-r10 { fill: #24d6a8;font-weight: bold }
.terminal-r11 { fill: #e3c26f;font-weight: bold }
.terminal-r12 { fill: #e3c26f }
.terminal-r13 { fill: #7aa6ff;font-weight: bold }
.terminal-r14 { fill: #ff6b6b;font-weight: bold }
.terminal-r15 { fill: #ff6b6b }
.terminal-r16 { fill: #000000 }
.terminal-r17 { fill: #d9f7ff }
    </style>

    <defs>
    <clipPath id="terminal-clip-terminal">
      <rect x="0" y="0" width="877.4" height="487.0" />
    </clipPath>
    <clipPath id="terminal-line-0">
    <rect x="0" y="1.5" width="878.4" height="24.65"/>
            </clipPath>
<clipPath id="terminal-line-1">
    <rect x="0" y="25.9" width="878.4" height="24.65"/>
            </clipPath>
<clipPath id="terminal-line-2">
    <rect x="0" y="50.3" width="878.4" height="24.65"/>
            </clipPath>
<clipPath id="terminal-line-3">
    <rect x="0" y="74.7" width="878.4" height="24.65"/>
            </clipPath>
<clipPath id="terminal-line-4">
    <rect x="0" y="99.1" width="878.4" height="24.65"/>
            </clipPath>
<clipPath id="terminal-line-5">
    <rect x="0" y="123.5" width="878.4" height="24.65"/>
            </clipPath>
<clipPath id="terminal-line-6">
    <rect x="0" y="147.9" width="878.4" height="24.65"/>
            </clipPath>
<clipPath id="terminal-line-7">
    <rect x="0" y="172.3" width="878.4" height="24.65"/>
            </clipPath>
<clipPath id="terminal-line-8">
    <rect x="0" y="196.7" width="878.4" height="24.65"/>
            </clipPath>
<clipPath id="terminal-line-9">
    <rect x="0" y="221.1" width="878.4" height="24.65"/>
            </clipPath>
<clipPath id="terminal-line-10">
    <rect x="0" y="245.5" width="878.4" height="24.65"/>
            </clipPath>
<clipPath id="terminal-line-11">
    <rect x="0" y="269.9" width="878.4" height="24.65"/>
            </clipPath>
<clipPath id="terminal-line-12">
    <rect x="0" y="294.3" width="878.4" height="24.65"/>
            </clipPath>
<clipPath id="terminal-line-13">
    <rect x="0" y="318.7" width="878.4" height="24.65"/>
            </clipPath>
<clipPath id="terminal-line-14">
    <rect x="0" y="343.1" width="878.4" height="24.65"/>
            </clipPath>
<clipPath id="terminal-line-15">
    <rect x="0" y="367.5" width="878.4" height="24.65"/>
            </clipPath>
<clipPath id="terminal-line-16">
    <rect x="0" y="391.9" width="878.4" height="24.65"/>
            </clipPath>
<clipPath id="terminal-line-17">
    <rect x="0" y="416.3" width="878.4" height="24.65"/>
            </clipPath>
<clipPath id="terminal-line-18">
    <rect x="0" y="440.7" width="878.4" height="24.65"/>
            </clipPath>
    </defs>

    <rect fill="#292929" stroke="rgba(255,255,255,0.35)" stroke-width="1" x="1" y="1" width="895" height="536" rx="8"/><text class="terminal-title" fill="#c5c8c6" text-anchor="middle" x="447" y="27">Frontier&#160;Scout&#160;·&#160;Mission&#160;Control</text>
            <g transform="translate(26,22)">
            <circle cx="0" cy="0" r="7" fill="#ff5f57"/>
            <circle cx="22" cy="0" r="7" fill="#febc2e"/>
            <circle cx="44" cy="0" r="7" fill="#28c840"/>
            </g>
        
    <g transform="translate(9, 41)" clip-path="url(#terminal-clip-terminal)">
    <rect fill="#0d1622" x="0" y="1.5" width="12.2" height="24.65" shape-rendering="crispEdges"/><rect fill="#0d1622" x="12.2" y="1.5" width="12.2" height="24.65" shape-rendering="crispEdges"/><rect fill="#0d1622" x="24.4" y="1.5" width="12.2" height="24.65" shape-rendering="crispEdges"/><rect fill="#0d1622" x="36.6" y="1.5" width="170.8" height="24.65" shape-rendering="crispEdges"/><rect fill="#0d1622" x="207.4" y="1.5" width="12.2" height="24.65" shape-rendering="crispEdges"/><rect fill="#0d1622" x="219.6" y="1.5" width="12.2" height="24.65" shape-rendering="crispEdges"/><rect fill="#0d1622" x="231.8" y="1.5" width="12.2" height="24.65" shape-rendering="crispEdges"/><rect fill="#0d1622" x="244" y="1.5" width="231.8" height="24.65" shape-rendering="crispEdges"/><rect fill="#0d1622" x="475.8" y="1.5" width="24.4" height="24.65" shape-rendering="crispEdges"/><rect fill="#0d1622" x="500.2" y="1.5" width="85.4" height="24.65" shape-rendering="crispEdges"/><rect fill="#0d1622" x="585.6" y="1.5" width="12.2" height="24.65" shape-rendering="crispEdges"/><rect fill="#0d1622" x="597.8" y="1.5" width="256.2" height="24.65" shape-rendering="crispEdges"/><rect fill="#0d1622" x="854" y="1.5" width="24.4" height="24.65" shape-rendering="crispEdges"/><rect fill="#0d1622" x="0" y="25.9" width="878.4" height="24.65" shape-rendering="crispEdges"/><rect fill="#0b1117" x="0" y="50.3" width="878.4" height="24.65" shape-rendering="crispEdges"/><rect fill="#0b1117" x="0" y="74.7" width="24.4" height="24.65" shape-rendering="crispEdges"/><rect fill="#0b1117" x="24.4" y="74.7" width="805.2" height="24.65" shape-rendering="crispEdges"/><rect fill="#003054" x="829.6" y="74.7" width="24.4" height="24.65" shape-rendering="crispEdges"/><rect fill="#0b1117" x="854" y="74.7" width="24.4" height="24.65" shape-rendering="crispEdges"/><rect fill="#0b1117" x="0" y="99.1" width="24.4" height="24.65" shape-rendering="crispEdges"/><rect fill="#0b1117" x="24.4" y="99.1" width="12.2" height="24.65" shape-rendering="crispEdges"/><rect fill="#0b1117" x="36.6" y="99.1" width="12.2" height="24.65" shape-rendering="crispEdges"/><rect fill="#0b1117" x="48.8" y="99.1" width="134.2" height="24.65" shape-rendering="crispEdges"/><rect fill="#0b1117" x="183" y="99.1" width="634.4" height="24.65" shape-rendering="crispEdges"/><rect fill="#0b1117" x="817.4" y="99.1" width="12.2" height="24.65" shape-rendering="crispEdges"/><rect fill="#003054" x="829.6" y="99.1" width="24.4" height="24.65" shape-rendering="crispEdges"/><rect fill="#0b1117" x="854" y="99.1" width="24.4" height="24.65" shape-rendering="crispEdges"/><rect fill="#0b1117" x="0" y="123.5" width="24.4" height="24.65" shape-rendering="crispEdges"/><rect fill="#0b1117" x="24.4" y="123.5" width="12.2" height="24.65" shape-rendering="crispEdges"/><rect fill="#0b1117" x="36.6" y="123.5" width="12.2" height="24.65" shape-rendering="crispEdges"/><rect fill="#0b1117" x="48.8" y="123.5" width="73.2" height="24.65" shape-rendering="crispEdges"/><rect fill="#0b1117" x="122" y="123.5" width="12.2" height="24.65" shape-rendering="crispEdges"/><rect fill="#0b1117" x="134.2" y="123.5" width="12.2" height="24.65" shape-rendering="crispEdges"/><rect fill="#0b1117" x="146.4" y="123.5" width="85.4" height="24.65" shape-rendering="crispEdges"/><rect fill="#0b1117" x="231.8" y="123.5" width="12.2" height="24.65" shape-rendering="crispEdges"/><rect fill="#0b1117" x="244" y="123.5" width="24.4" height="24.65" shape-rendering="crispEdges"/><rect fill="#0b1117" x="268.4" y="123.5" width="24.4" height="24.65" shape-rendering="crispEdges"/><rect fill="#0b1117" x="292.8" y="123.5" width="524.6" height="24.65" shape-rendering="crispEdges"/><rect fill="#0b1117" x="817.4" y="123.5" width="12.2" height="24.65" shape-rendering="crispEdges"/><rect fill="#003054" x="829.6" y="123.5" width="24.4" height="24.65" shape-rendering="crispEdges"/><rect fill="#0b1117" x="854" y="123.5" width="24.4" height="24.65" shape-rendering="crispEdges"/><rect fill="#0b1117" x="0" y="147.9" width="24.4" height="24.65" shape-rendering="crispEdges"/><rect fill="#0b1117" x="24.4" y="147.9" width="12.2" height="24.65" shape-rendering="crispEdges"/><rect fill="#0b1117" x="36.6" y="147.9" width="12.2" height="24.65" shape-rendering="crispEdges"/><rect fill="#0b1117" x="48.8" y="147.9" width="73.2" height="24.65" shape-rendering="crispEdges"/><rect fill="#0b1117" x="122" y="147.9" width="12.2" height="24.65" shape-rendering="crispEdges"/><rect fill="#0b1117" x="134.2" y="147.9" width="12.2" height="24.65" shape-rendering="crispEdges"/><rect fill="#0b1117" x="146.4" y="147.9" width="85.4" height="24.65" shape-rendering="crispEdges"/><rect fill="#0b1117" x="231.8" y="147.9" width="12.2" height="24.65" shape-rendering="crispEdges"/><rect fill="#0b1117" x="244" y="147.9" width="24.4" height="24.65" shape-rendering="crispEdges"/><rect fill="#0b1117" x="268.4" y="147.9" width="24.4" height="24.65" shape-rendering="crispEdges"/><rect fill="#0b1117" x="292.8" y="147.9" width="524.6" height="24.65" shape-rendering="crispEdges"/><rect fill="#0b1117" x="817.4" y="147.9" width="12.2" height="24.65" shape-rendering="crispEdges"/><rect fill="#003054" x="829.6" y="147.9" width="24.4" height="24.65" shape-rendering="crispEdges"/><rect fill="#0b1117" x="854" y="147.9" width="24.4" height="24.65" shape-rendering="crispEdges"/><rect fill="#0b1117" x="0" y="172.3" width="24.4" height="24.65" shape-rendering="crispEdges"/><rect fill="#0b1117" x="24.4" y="172.3" width="12.2" height="24.65" shape-rendering="crispEdges"/><rect fill="#0b1117" x="36.6" y="172.3" width="12.2" height="24.65" shape-rendering="crispEdges"/><rect fill="#0b1117" x="48.8" y="172.3" width="73.2" height="24.65" shape-rendering="crispEdges"/><rect fill="#0b1117" x="122" y="172.3" width="12.2" height="24.65" shape-rendering="crispEdges"/><rect fill="#0b1117" x="134.2" y="172.3" width="97.6" height="24.65" shape-rendering="crispEdges"/><rect fill="#0b1117" x="231.8" y="172.3" width="12.2" height="24.65" shape-rendering="crispEdges"/><rect fill="#0b1117" x="244" y="172.3" width="24.4" height="24.65" shape-rendering="crispEdges"/><rect fill="#0b1117" x="268.4" y="172.3" width="24.4" height="24.65" shape-rendering="crispEdges"/><rect fill="#0b1117" x="292.8" y="172.3" width="524.6" height="24.65" shape-rendering="crispEdges"/><rect fill="#0b1117" x="817.4" y="172.3" width="12.2" height="24.65" shape-rendering="crispEdges"/><rect fill="#003054" x="829.6" y="172.3" width="24.4" height="24.65" shape-rendering="crispEdges"/><rect fill="#0b1117" x="854" y="172.3" width="24.4" height="24.65" shape-rendering="crispEdges"/><rect fill="#0b1117" x="0" y="196.7" width="24.4" height="24.65" shape-rendering="crispEdges"/><rect fill="#0b1117" x="24.4" y="196.7" width="12.2" height="24.65" shape-rendering="crispEdges"/><rect fill="#0b1117" x="36.6" y="196.7" width="12.2" height="24.65" shape-rendering="crispEdges"/><rect fill="#0b1117" x="48.8" y="196.7" width="73.2" height="24.65" shape-rendering="crispEdges"/><rect fill="#0b1117" x="122" y="196.7" width="12.2" height="24.65" shape-rendering="crispEdges"/><rect fill="#0b1117" x="134.2" y="196.7" width="12.2" height="24.65" shape-rendering="crispEdges"/><rect fill="#0b1117" x="146.4" y="196.7" width="85.4" height="24.65" shape-rendering="crispEdges"/><rect fill="#0b1117" x="231.8" y="196.7" width="12.2" height="24.65" shape-rendering="crispEdges"/><rect fill="#0b1117" x="244" y="196.7" width="24.4" height="24.65" shape-rendering="crispEdges"/><rect fill="#0b1117" x="268.4" y="196.7" width="24.4" height="24.65" shape-rendering="crispEdges"/><rect fill="#0b1117" x="292.8" y="196.7" width="524.6" height="24.65" shape-rendering="crispEdges"/><rect fill="#0b1117" x="817.4" y="196.7" width="12.2" height="24.65" shape-rendering="crispEdges"/><rect fill="#003054" x="829.6" y="196.7" width="24.4" height="24.65" shape-rendering="crispEdges"/><rect fill="#0b1117" x="854" y="196.7" width="24.4" height="24.65" shape-rendering="crispEdges"/><rect fill="#0b1117" x="0" y="221.1" width="24.4" height="24.65" shape-rendering="crispEdges"/><rect fill="#0b1117" x="24.4" y="221.1" width="805.2" height="24.65" shape-rendering="crispEdges"/><rect fill="#003054" x="829.6" y="221.1" width="24.4" height="24.65" shape-rendering="crispEdges"/><rect fill="#0b1117" x="854" y="221.1" width="24.4" height="24.65" shape-rendering="crispEdges"/><rect fill="#0b1117" x="0" y="245.5" width="829.6" height="24.65" shape-rendering="crispEdges"/><rect fill="#003054" x="829.6" y="245.5" width="24.4" height="24.65" shape-rendering="crispEdges"/><rect fill="#0b1117" x="854" y="245.5" width="24.4" height="24.65" shape-rendering="crispEdges"/><rect fill="#0b1117" x="0" y="269.9" width="24.4" height="24.65" shape-rendering="crispEdges"/><rect fill="#0b1117" x="24.4" y="269.9" width="61" height="24.65" shape-rendering="crispEdges"/><rect fill="#0b1117" x="85.4" y="269.9" width="12.2" height="24.65" shape-rendering="crispEdges"/><rect fill="#0b1117" x="97.6" y="269.9" width="732" height="24.65" shape-rendering="crispEdges"/><rect fill="#000000" x="829.6" y="269.9" width="24.4" height="24.65" shape-rendering="crispEdges"/><rect fill="#0b1117" x="854" y="269.9" width="24.4" height="24.65" shape-rendering="crispEdges"/><rect fill="#0b1117" x="0" y="294.3" width="829.6" height="24.65" shape-rendering="crispEdges"/><rect fill="#000000" x="829.6" y="294.3" width="24.4" height="24.65" shape-rendering="crispEdges"/><rect fill="#0b1117" x="854" y="294.3" width="24.4" height="24.65" shape-rendering="crispEdges"/><rect fill="#0b1117" x="0" y="318.7" width="24.4" height="24.65" shape-rendering="crispEdges"/><rect fill="#0b1117" x="24.4" y="318.7" width="549" height="24.65" shape-rendering="crispEdges"/><rect fill="#0b1117" x="573.4" y="318.7" width="256.2" height="24.65" shape-rendering="crispEdges"/><rect fill="#000000" x="829.6" y="318.7" width="24.4" height="24.65" shape-rendering="crispEdges"/><rect fill="#0b1117" x="854" y="318.7" width="24.4" height="24.65" shape-rendering="crispEdges"/><rect fill="#0b1117" x="0" y="343.1" width="24.4" height="24.65" shape-rendering="crispEdges"/><rect fill="#10202a" x="24.4" y="343.1" width="12.2" height="24.65" shape-rendering="crispEdges"/><rect fill="#10202a" x="36.6" y="343.1" width="12.2" height="24.65" shape-rendering="crispEdges"/><rect fill="#10202a" x="48.8" y="343.1" width="73.2" height="24.65" shape-rendering="crispEdges"/><rect fill="#10202a" x="122" y="343.1" width="12.2" height="24.65" shape-rendering="crispEdges"/><rect fill="#10202a" x="134.2" y="343.1" width="73.2" height="24.65" shape-rendering="crispEdges"/><rect fill="#10202a" x="207.4" y="343.1" width="12.2" height="24.65" shape-rendering="crispEdges"/><rect fill="#10202a" x="219.6" y="343.1" width="97.6" height="24.65" shape-rendering="crispEdges"/><rect fill="#10202a" x="317.2" y="343.1" width="512.4" height="24.65" shape-rendering="crispEdges"/><rect fill="#000000" x="829.6" y="343.1" width="24.4" height="24.65" shape-rendering="crispEdges"/><rect fill="#0b1117" x="854" y="343.1" width="24.4" height="24.65" shape-rendering="crispEdges"/><rect fill="#0b1117" x="0" y="367.5" width="24.4" height="24.65" shape-rendering="crispEdges"/><rect fill="#0b1117" x="24.4" y="367.5" width="24.4" height="24.65" shape-rendering="crispEdges"/><rect fill="#0b1117" x="48.8" y="367.5" width="73.2" height="24.65" shape-rendering="crispEdges"/><rect fill="#0b1117" x="122" y="367.5" width="12.2" height="24.65" shape-rendering="crispEdges"/><rect fill="#0b1117" x="134.2" y="367.5" width="109.8" height="24.65" shape-rendering="crispEdges"/><rect fill="#0b1117" x="244" y="367.5" width="12.2" height="24.65" shape-rendering="crispEdges"/><rect fill="#0b1117" x="256.2" y="367.5" width="158.6" height="24.65" shape-rendering="crispEdges"/><rect fill="#0b1117" x="414.8" y="367.5" width="414.8" height="24.65" shape-rendering="crispEdges"/><rect fill="#000000" x="829.6" y="367.5" width="24.4" height="24.65" shape-rendering="crispEdges"/><rect fill="#0b1117" x="854" y="367.5" width="24.4" height="24.65" shape-rendering="crispEdges"/><rect fill="#0b1117" x="0" y="391.9" width="24.4" height="24.65" shape-rendering="crispEdges"/><rect fill="#0b1117" x="24.4" y="391.9" width="24.4" height="24.65" shape-rendering="crispEdges"/><rect fill="#0b1117" x="48.8" y="391.9" width="73.2" height="24.65" shape-rendering="crispEdges"/><rect fill="#0b1117" x="122" y="391.9" width="12.2" height="24.65" shape-rendering="crispEdges"/><rect fill="#0b1117" x="134.2" y="391.9" width="85.4" height="24.65" shape-rendering="crispEdges"/><rect fill="#0b1117" x="219.6" y="391.9" width="12.2" height="24.65" shape-rendering="crispEdges"/><rect fill="#0b1117" x="231.8" y="391.9" width="97.6" height="24.65" shape-rendering="crispEdges"/><rect fill="#0b1117" x="329.4" y="391.9" width="500.2" height="24.65" shape-rendering="crispEdges"/><rect fill="#000000" x="829.6" y="391.9" width="24.4" height="24.65" shape-rendering="crispEdges"/><rect fill="#0b1117" x="854" y="391.9" width="24.4" height="24.65" shape-rendering="crispEdges"/><rect fill="#0b1117" x="0" y="416.3" width="24.4" height="24.65" shape-rendering="crispEdges"/><rect fill="#0b1117" x="24.4" y="416.3" width="805.2" height="24.65" shape-rendering="crispEdges"/><rect fill="#000000" x="829.6" y="416.3" width="24.4" height="24.65" shape-rendering="crispEdges"/><rect fill="#0b1117" x="854" y="416.3" width="24.4" height="24.65" shape-rendering="crispEdges"/><rect fill="#0b1117" x="0" y="440.7" width="878.4" height="24.65" shape-rendering="crispEdges"/><rect fill="#0d1622" x="0" y="465.1" width="12.2" height="24.65" shape-rendering="crispEdges"/><rect fill="#0d1622" x="12.2" y="465.1" width="36.6" height="24.65" shape-rendering="crispEdges"/><rect fill="#0d1622" x="48.8" y="465.1" width="61" height="24.65" shape-rendering="crispEdges"/><rect fill="#0d1622" x="109.8" y="465.1" width="12.2" height="24.65" shape-rendering="crispEdges"/><rect fill="#0d1622" x="122" y="465.1" width="36.6" height="24.65" shape-rendering="crispEdges"/><rect fill="#0d1622" x="158.6" y="465.1" width="61" height="24.65" shape-rendering="crispEdges"/><rect fill="#0d1622" x="219.6" y="465.1" width="12.2" height="24.65" shape-rendering="crispEdges"/><rect fill="#0d1622" x="231.8" y="465.1" width="12.2" height="24.65" shape-rendering="crispEdges"/><rect fill="#0d1622" x="244" y="465.1" width="73.2" height="24.65" shape-rendering="crispEdges"/><rect fill="#0d1622" x="317.2" y="465.1" width="12.2" height="24.65" shape-rendering="crispEdges"/><rect fill="#0d1622" x="329.4" y="465.1" width="12.2" height="24.65" shape-rendering="crispEdges"/><rect fill="#0d1622" x="341.6" y="465.1" width="61" height="24.65" shape-rendering="crispEdges"/><rect fill="#0d1622" x="402.6" y="465.1" width="12.2" height="24.65" shape-rendering="crispEdges"/><rect fill="#0d1622" x="414.8" y="465.1" width="12.2" height="24.65" shape-rendering="crispEdges"/><rect fill="#0d1622" x="427" y="465.1" width="61" height="24.65" shape-rendering="crispEdges"/><rect fill="#0d1622" x="488" y="465.1" width="158.6" height="24.65" shape-rendering="crispEdges"/><rect fill="#0d1622" x="646.6" y="465.1" width="219.6" height="24.65" shape-rendering="crispEdges"/><rect fill="#0d1622" x="866.2" y="465.1" width="12.2" height="24.65" shape-rendering="crispEdges"/>
    <g class="terminal-matrix">
    <text class="terminal-r2" x="12.2" y="20" textLength="12.2" clip-path="url(#terminal-line-0)">◉</text><text class="terminal-r4" x="36.6" y="20" textLength="170.8" clip-path="url(#terminal-line-0)">frontier&#160;scout</text><text class="terminal-r5" x="219.6" y="20" textLength="12.2" clip-path="url(#terminal-line-0)">│</text><text class="terminal-r3" x="244" y="20" textLength="231.8" clip-path="url(#terminal-line-0)">ai-telemetry-public</text><text class="terminal-r6" x="500.2" y="20" textLength="85.4" clip-path="url(#terminal-line-0)">●&#160;local</text><text class="terminal-r6" x="597.8" y="20" textLength="256.2" clip-path="url(#terminal-line-0)">377&#160;src&#160;·&#160;last&#160;7&#160;days</text><text class="terminal-r1" x="878.4" y="20" textLength="12.2" clip-path="url(#terminal-line-0)">
</text><text class="terminal-r1" x="878.4" y="44.4" textLength="12.2" clip-path="url(#terminal-line-1)">
</text><text class="terminal-r1" x="878.4" y="68.8" textLength="12.2" clip-path="url(#terminal-line-2)">
</text><text class="terminal-r8" x="24.4" y="93.2" textLength="805.2" clip-path="url(#terminal-line-3)">╭────────────────────────────────────────────────────────────────╮</text><text class="terminal-r1" x="878.4" y="93.2" textLength="12.2" clip-path="url(#terminal-line-3)">
</text><text class="terminal-r8" x="24.4" y="117.6" textLength="12.2" clip-path="url(#terminal-line-4)">│</text><text class="terminal-r6" x="48.8" y="117.6" textLength="134.2" clip-path="url(#terminal-line-4)">tier&#160;ledger</text><text class="terminal-r8" x="817.4" y="117.6" textLength="12.2" clip-path="url(#terminal-line-4)">│</text><text class="terminal-r1" x="878.4" y="117.6" textLength="12.2" clip-path="url(#terminal-line-4)">
</text><text class="terminal-r8" x="24.4" y="142" textLength="12.2" clip-path="url(#terminal-line-5)">│</text><text class="terminal-r10" x="48.8" y="142" textLength="73.2" clip-path="url(#terminal-line-5)">ADOPT&#160;</text><text class="terminal-r2" x="134.2" y="142" textLength="12.2" clip-path="url(#terminal-line-5)">▰</text><text class="terminal-r6" x="146.4" y="142" textLength="85.4" clip-path="url(#terminal-line-5)">▱▱▱▱▱▱▱</text><text class="terminal-r3" x="244" y="142" textLength="24.4" clip-path="url(#terminal-line-5)">1&#160;</text><text class="terminal-r8" x="817.4" y="142" textLength="12.2" clip-path="url(#terminal-line-5)">│</text><text class="terminal-r1" x="878.4" y="142" textLength="12.2" clip-path="url(#terminal-line-5)">
</text><text class="terminal-r8" x="24.4" y="166.4" textLength="12.2" clip-path="url(#terminal-line-6)">│</text><text class="terminal-r11" x="48.8" y="166.4" textLength="73.2" clip-path="url(#terminal-line-6)">TRIAL&#160;</text><text class="terminal-r12" x="134.2" y="166.4" textLength="12.2" clip-path="url(#terminal-line-6)">▰</text><text class="terminal-r6" x="146.4" y="166.4" textLength="85.4" clip-path="url(#terminal-line-6)">▱▱▱▱▱▱▱</text><text class="terminal-r3" x="244" y="166.4" textLength="24.4" clip-path="url(#terminal-line-6)">1&#160;</text><text class="terminal-r8" x="817.4" y="166.4" textLength="12.2" clip-path="url(#terminal-line-6)">│</text><text class="terminal-r1" x="878.4" y="166.4" textLength="12.2" clip-path="url(#terminal-line-6)">
</text><text class="terminal-r8" x="24.4" y="190.8" textLength="12.2" clip-path="url(#terminal-line-7)">│</text><text class="terminal-r13" x="48.8" y="190.8" textLength="73.2" clip-path="url(#terminal-line-7)">ASSESS</text><text class="terminal-r6" x="134.2" y="190.8" textLength="97.6" clip-path="url(#terminal-line-7)">▱▱▱▱▱▱▱▱</text><text class="terminal-r3" x="244" y="190.8" textLength="24.4" clip-path="url(#terminal-line-7)">0&#160;</text><text class="terminal-r8" x="817.4" y="190.8" textLength="12.2" clip-path="url(#terminal-line-7)">│</text><text class="terminal-r1" x="878.4" y="190.8" textLength="12.2" clip-path="url(#terminal-line-7)">
</text><text class="terminal-r8" x="24.4" y="215.2" textLength="12.2" clip-path="url(#terminal-line-8)">│</text><text class="terminal-r14" x="48.8" y="215.2" textLength="73.2" clip-path="url(#terminal-line-8)">HOLD&#160;&#160;</text><text class="terminal-r15" x="134.2" y="215.2" textLength="12.2" clip-path="url(#terminal-line-8)">▰</text><text class="terminal-r6" x="146.4" y="215.2" textLength="85.4" clip-path="url(#terminal-line-8)">▱▱▱▱▱▱▱</text><text class="terminal-r3" x="244" y="215.2" textLength="24.4" clip-path="url(#terminal-line-8)">1&#160;</text><text class="terminal-r8" x="817.4" y="215.2" textLength="12.2" clip-path="url(#terminal-line-8)">│</text><text class="terminal-r1" x="878.4" y="215.2" textLength="12.2" clip-path="url(#terminal-line-8)">
</text><text class="terminal-r8" x="24.4" y="239.6" textLength="805.2" clip-path="url(#terminal-line-9)">╰────────────────────────────────────────────────────────────────╯</text><text class="terminal-r1" x="878.4" y="239.6" textLength="12.2" clip-path="url(#terminal-line-9)">
</text><text class="terminal-r16" x="829.6" y="264" textLength="24.4" clip-path="url(#terminal-line-10)">▅▅</text><text class="terminal-r1" x="878.4" y="264" textLength="12.2" clip-path="url(#terminal-line-10)">
</text><text class="terminal-r6" x="24.4" y="288.4" textLength="61" clip-path="url(#terminal-line-11)">scope</text><text class="terminal-r1" x="878.4" y="288.4" textLength="12.2" clip-path="url(#terminal-line-11)">
</text><text class="terminal-r1" x="878.4" y="312.8" textLength="12.2" clip-path="url(#terminal-line-12)">
</text><text class="terminal-r6" x="24.4" y="337.2" textLength="549" clip-path="url(#terminal-line-13)">3&#160;verdict(s)&#160;·&#160;ranked&#160;for&#160;ai-telemetry-public</text><text class="terminal-r1" x="878.4" y="337.2" textLength="12.2" clip-path="url(#terminal-line-13)">
</text><text class="terminal-r2" x="24.4" y="361.6" textLength="12.2" clip-path="url(#terminal-line-14)">▸</text><text class="terminal-r10" x="48.8" y="361.6" textLength="73.2" clip-path="url(#terminal-line-14)">ADOPT&#160;</text><text class="terminal-r17" x="134.2" y="361.6" textLength="73.2" clip-path="url(#terminal-line-14)">skills</text><text class="terminal-r6" x="219.6" y="361.6" textLength="97.6" clip-path="url(#terminal-line-14)">high/low</text><text class="terminal-r1" x="878.4" y="361.6" textLength="12.2" clip-path="url(#terminal-line-14)">
</text><text class="terminal-r11" x="48.8" y="386" textLength="73.2" clip-path="url(#terminal-line-15)">TRIAL&#160;</text><text class="terminal-r17" x="134.2" y="386" textLength="109.8" clip-path="url(#terminal-line-15)">langchain</text><text class="terminal-r6" x="256.2" y="386" textLength="158.6" clip-path="url(#terminal-line-15)">medium/medium</text><text class="terminal-r1" x="878.4" y="386" textLength="12.2" clip-path="url(#terminal-line-15)">
</text><text class="terminal-r14" x="48.8" y="410.4" textLength="73.2" clip-path="url(#terminal-line-16)">HOLD&#160;&#160;</text><text class="terminal-r17" x="134.2" y="410.4" textLength="85.4" clip-path="url(#terminal-line-16)">autogpt</text><text class="terminal-r6" x="231.8" y="410.4" textLength="97.6" clip-path="url(#terminal-line-16)">low/high</text><text class="terminal-r1" x="878.4" y="410.4" textLength="12.2" clip-path="url(#terminal-line-16)">
</text><text class="terminal-r8" x="24.4" y="434.8" textLength="805.2" clip-path="url(#terminal-line-17)">╭────────────────────────────────────────────────────────────────╮</text><text class="terminal-r1" x="878.4" y="434.8" textLength="12.2" clip-path="url(#terminal-line-17)">
</text><text class="terminal-r1" x="878.4" y="459.2" textLength="12.2" clip-path="url(#terminal-line-18)">
</text><text class="terminal-r10" x="12.2" y="483.6" textLength="36.6" clip-path="url(#terminal-line-19)">1-8</text><text class="terminal-r6" x="48.8" y="483.6" textLength="61" clip-path="url(#terminal-line-19)">&#160;tabs</text><text class="terminal-r10" x="122" y="483.6" textLength="36.6" clip-path="url(#terminal-line-19)">j/k</text><text class="terminal-r6" x="158.6" y="483.6" textLength="61" clip-path="url(#terminal-line-19)">&#160;move</text><text class="terminal-r10" x="231.8" y="483.6" textLength="12.2" clip-path="url(#terminal-line-19)">s</text><text class="terminal-r6" x="244" y="483.6" textLength="73.2" clip-path="url(#terminal-line-19)">&#160;scout</text><text class="terminal-r10" x="329.4" y="483.6" textLength="12.2" clip-path="url(#terminal-line-19)">?</text><text class="terminal-r6" x="341.6" y="483.6" textLength="61" clip-path="url(#terminal-line-19)">&#160;help</text><text class="terminal-r10" x="414.8" y="483.6" textLength="12.2" clip-path="url(#terminal-line-19)">q</text><text class="terminal-r6" x="427" y="483.6" textLength="61" clip-path="url(#terminal-line-19)">&#160;quit</text><text class="terminal-r6" x="646.6" y="483.6" textLength="219.6" clip-path="url(#terminal-line-19)">3&#160;verdicts&#160;·&#160;$0.00</text>
    </g>
    </g>
</svg>
