<svg xmlns="http://www.w3.org/2000/svg" viewBox="0 0 1200 560" role="img" aria-labelledby="title desc">
  <title id="title">Frontier Scout — the radar for latest AI releases that fit your repo</title>
  <desc id="desc">Dark terminal window with a radar centerpiece, the FRONTIER · SCOUT wordmark, and the version + tagline.</desc>
  <defs>
    <style>
      .mono { font-family: "JetBrains Mono", "SFMono-Regular", Menlo, Consolas, monospace; }
      .ink  { fill: #d9f7ff; }
      .muted { fill: #6e8aa1; }
      .mint { fill: #24d6a8; }
      .ring { stroke: #25405c; stroke-width: 1.25; fill: none; }
      .sweep-mint { stroke: #24d6a8; stroke-width: 1.5; fill: #24d6a8; fill-opacity: 0.2; }
    </style>
  </defs>

  <!-- page bg -->
  <rect width="1200" height="560" fill="#0b1117"/>

  <!-- terminal frame: top padding 90, bottom padding 90, sides 120 each -->
  <g transform="translate(120 90)">
    <!-- window body -->
    <rect x="0" y="0" width="960" height="380" rx="20" fill="#0d1622" stroke="#25405c" stroke-width="1.5"/>
    <!-- titlebar -->
    <rect x="0" y="0" width="960" height="40" rx="20" fill="#1b2530"/>
    <rect x="0" y="20" width="960" height="20" fill="#1b2530"/>
    <circle cx="28" cy="20" r="7" fill="#ff5f57"/>
    <circle cx="52" cy="20" r="7" fill="#febc2e"/>
    <circle cx="76" cy="20" r="7" fill="#28c840"/>
    <text x="110" y="26" class="mono muted" font-size="12">frontier-scout · mission control</text>

    <!-- wordmark band -->
    <text x="480" y="100" text-anchor="middle" class="mono ink" font-size="34" font-weight="700" letter-spacing="3">FRONTIER · SCOUT</text>
    <text x="480" y="128" text-anchor="middle" class="mono muted" font-size="14" letter-spacing="2">the radar for latest AI releases that fit your repo</text>

    <!-- radar centerpiece — center at y=235 so the bottom (y≈315) clears the footer at y=345 -->
    <g transform="translate(480 235)">
      <circle r="80" class="ring"/>
      <circle r="52" class="ring"/>
      <circle r="26" class="ring"/>
      <line x1="-80" y1="0" x2="80" y2="0" class="ring"/>
      <line x1="0" y1="-80" x2="0" y2="80" class="ring"/>
      <path d="M 0 0 L 0 -80 A 80 80 0 0 1 69 -40 Z" class="sweep-mint"/>
      <circle r="6" fill="#24d6a8"/>
      <circle cx="38" cy="-22" r="4" fill="#24d6a8"/>
      <circle cx="-20" cy="36" r="4" fill="#e3c26f"/>
      <circle cx="50" cy="28" r="4" fill="#7aa6ff"/>
    </g>

    <!-- safety footer (well below radar) -->
    <text x="480" y="345" text-anchor="middle" class="mono muted" font-size="12">local-first  ·  no repo content sent to an LLM  ·  no tools installed</text>

    <!-- bottom badge row inside the terminal -->
    <text x="36" y="365" class="mono mint" font-size="12" font-weight="700">v1.1</text>
    <text x="100" y="365" class="mono muted" font-size="12">Python · Textual · tree-sitter · SQLite · cron-friendly</text>
    <text x="924" y="365" text-anchor="end" class="mono muted" font-size="12">MIT licensed</text>
  </g>
</svg>
