<svg xmlns="http://www.w3.org/2000/svg" viewBox="0 0 1200 500" role="img" aria-labelledby="title desc">
  <title id="title">Frontier Scout — try-before-trust radar</title>
  <desc id="desc">Dark terminal window with a radar centerpiece and the FRONTIER · SCOUT wordmark.</desc>
  <defs>
    <style>
      .mono { font-family: "JetBrains Mono", "SFMono-Regular", Menlo, Consolas, monospace; }
      .ink  { fill: #d9f7ff; }
      .muted { fill: #6e8aa1; }
      .mint { fill: #24d6a8; }
      .border { stroke: #25405c; fill: none; }
      .ring { stroke: #25405c; stroke-width: 1.25; fill: none; }
      .sweep-mint { stroke: #24d6a8; stroke-width: 1.5; fill: #24d6a8; fill-opacity: 0.2; }
    </style>
  </defs>

  <!-- page bg -->
  <rect width="1200" height="500" fill="#0b1117"/>

  <!-- terminal frame -->
  <g transform="translate(120 70)">
    <!-- window body -->
    <rect x="0" y="0" width="960" height="360" rx="20" fill="#0d1622" stroke="#25405c" stroke-width="1.5"/>
    <!-- titlebar -->
    <rect x="0" y="0" width="960" height="40" rx="20" fill="#1b2530"/>
    <rect x="0" y="20" width="960" height="20" fill="#1b2530"/>
    <circle cx="28" cy="20" r="7" fill="#ff5f57"/>
    <circle cx="52" cy="20" r="7" fill="#febc2e"/>
    <circle cx="76" cy="20" r="7" fill="#28c840"/>
    <text x="110" y="26" class="mono muted" font-size="12">frontier-scout setup</text>

    <!-- wordmark band -->
    <text x="480" y="100" text-anchor="middle" class="mono ink" font-size="34" font-weight="700" letter-spacing="3">FRONTIER · SCOUT</text>
    <text x="480" y="128" text-anchor="middle" class="mono muted" font-size="14" letter-spacing="2">try-before-trust radar</text>

    <!-- radar centerpiece -->
    <g transform="translate(480 245)">
      <!-- three rings -->
      <circle r="105" class="ring"/>
      <circle r="68" class="ring"/>
      <circle r="32" class="ring"/>
      <!-- cross-hairs -->
      <line x1="-105" y1="0" x2="105" y2="0" class="ring"/>
      <line x1="0" y1="-105" x2="0" y2="105" class="ring"/>
      <!-- mint sweep wedge from up to right -->
      <path d="M 0 0 L 0 -105 A 105 105 0 0 1 91 -53 Z" class="sweep-mint"/>
      <!-- center -->
      <circle r="7" fill="#24d6a8"/>
      <!-- pings: mint / gold / blue -->
      <circle cx="48" cy="-30" r="5" fill="#24d6a8"/>
      <circle cx="-26" cy="46" r="5" fill="#e3c26f"/>
      <circle cx="66" cy="36" r="5" fill="#7aa6ff"/>
    </g>

    <!-- footer hint -->
    <text x="480" y="340" text-anchor="middle" class="mono muted" font-size="12">local-first  ·  no repo content sent to an LLM  ·  no tools installed</text>
  </g>

  <!-- bottom badge row -->
  <g transform="translate(120 460)" class="mono">
    <text x="0" y="0" class="mint" font-size="13" font-weight="700">v0.4.0</text>
    <text x="80" y="0" class="muted" font-size="13">Python · Textual · tree-sitter · SQLite</text>
    <text x="960" y="0" text-anchor="end" class="muted" font-size="13">MIT licensed</text>
  </g>
</svg>
