<svg xmlns="http://www.w3.org/2000/svg" viewBox="0 0 1000 360" width="1000" height="360" fill="none" role="img" aria-label="Verdict card: modelcontextprotocol/servers — TRIAL, safe to test not to ship. Fit high 0.86, risk medium 0.42, eval passed. Guard blocks adoption until a trial receipt exists.">
  <defs>
    <linearGradient id="v-bg" x1="0" y1="0" x2="1" y2="1">
      <stop offset="0" stop-color="#0f1827"></stop><stop offset="1" stop-color="#0a0f1a"></stop>
    </linearGradient>
    <linearGradient id="v-amber" x1="0" y1="0" x2="1" y2="0">
      <stop offset="0" stop-color="#f0c66a" stop-opacity=".16"></stop><stop offset="1" stop-color="#f0c66a" stop-opacity="0"></stop>
    </linearGradient>
    <linearGradient id="m-fit" x1="0" y1="0" x2="1" y2="0"><stop offset="0" stop-color="#12a06f"></stop><stop offset="1" stop-color="#1fcf9f"></stop></linearGradient>
    <linearGradient id="m-risk" x1="0" y1="0" x2="1" y2="0"><stop offset="0" stop-color="#c08a12"></stop><stop offset="1" stop-color="#f0c66a"></stop></linearGradient>
    <linearGradient id="m-eval" x1="0" y1="0" x2="1" y2="0"><stop offset="0" stop-color="#2a5fe0"></stop><stop offset="1" stop-color="#5b8cff"></stop></linearGradient>
    
  </defs>

  
  <rect x="2" y="2" width="996" height="356" rx="18" fill="url(#v-bg)" stroke="#ffffff" stroke-opacity=".1"></rect>
  
  <path d="M20 2 H980 a18 18 0 0 1 18 18 V96 H2 V20 A18 18 0 0 1 20 2 Z" fill="url(#v-amber)"></path>
  <rect x="2" y="2" width="6" height="356" rx="3" fill="#f0c66a"></rect>

  
  <g transform="translate(40,40)">
    <rect x="0" y="0" width="120" height="40" rx="9" fill="#f0c66a"></rect>
    <text x="60" y="27" text-anchor="middle" class="d" font-size="21" letter-spacing="1" fill="#1a1205" font-family="Arial, &#34;Helvetica Neue&#34;, Helvetica, &#34;Segoe UI&#34;, system-ui, sans-serif">TRIAL</text>
    <text x="138" y="18" class="m" font-size="12.5" letter-spacing="2" fill="#f0c66a" font-family="&#34;SFMono-Regular&#34;, Consolas, &#34;Liberation Mono&#34;, Menlo, monospace">SAFE TO TEST · NOT TO SHIP</text>
    <text x="138" y="38" class="sb" font-size="17" fill="#eaf1fb" font-family="Arial, &#34;Helvetica Neue&#34;, Helvetica, &#34;Segoe UI&#34;, system-ui, sans-serif">modelcontextprotocol/servers</text>
    
    <g transform="translate(720,4)">
      <rect x="0" y="0" width="200" height="34" rx="8" fill="#ffffff" fill-opacity=".05" stroke="#ffffff" stroke-opacity=".12"></rect>
      <text x="16" y="22" class="m" font-size="12" fill="#9fb2c9" font-family="&#34;SFMono-Regular&#34;, Consolas, &#34;Liberation Mono&#34;, Menlo, monospace">type</text>
      <text x="184" y="22" text-anchor="end" class="sb" font-size="13" fill="#eaf1fb" font-family="Arial, &#34;Helvetica Neue&#34;, Helvetica, &#34;Segoe UI&#34;, system-ui, sans-serif">MCP server</text>
    </g>
  </g>

  
  <line x1="40" y1="118" x2="960" y2="118" stroke="#ffffff" stroke-opacity=".08"></line>

  
  <g transform="translate(40,150)" class="m" font-size="12">
    
    <text x="0" y="0" fill="#7d8ea3" letter-spacing="1.5" font-family="Arial, &#34;Helvetica Neue&#34;, Helvetica, &#34;Segoe UI&#34;, system-ui, sans-serif">FITS YOUR CODE</text>
    <text x="430" y="0" text-anchor="end" class="sb" font-size="13" fill="#1fcf9f" font-family="Arial, &#34;Helvetica Neue&#34;, Helvetica, &#34;Segoe UI&#34;, system-ui, sans-serif">high · 0.86</text>
    <rect x="0" y="10" width="430" height="7" rx="3.5" fill="#ffffff" fill-opacity=".07"></rect>
    <rect x="0" y="10" width="370" height="7" rx="3.5" fill="url(#m-fit)"></rect>

    
    <text x="0" y="46" fill="#7d8ea3" letter-spacing="1.5" font-family="Arial, &#34;Helvetica Neue&#34;, Helvetica, &#34;Segoe UI&#34;, system-ui, sans-serif">RISK LEVEL</text>
    <text x="430" y="46" text-anchor="end" class="sb" font-size="13" fill="#f0c66a" font-family="Arial, &#34;Helvetica Neue&#34;, Helvetica, &#34;Segoe UI&#34;, system-ui, sans-serif">medium · 0.42</text>
    <rect x="0" y="56" width="430" height="7" rx="3.5" fill="#ffffff" fill-opacity=".07"></rect>
    <rect x="0" y="56" width="181" height="7" rx="3.5" fill="url(#m-risk)"></rect>

    
    <text x="0" y="92" fill="#7d8ea3" letter-spacing="1.5" font-family="Arial, &#34;Helvetica Neue&#34;, Helvetica, &#34;Segoe UI&#34;, system-ui, sans-serif">ADOPTION-FIREWALL EVAL</text>
    <text x="430" y="92" text-anchor="end" class="sb" font-size="13" fill="#5b8cff" font-family="Arial, &#34;Helvetica Neue&#34;, Helvetica, &#34;Segoe UI&#34;, system-ui, sans-serif">passed · 1.00 / 1.00</text>
    <rect x="0" y="102" width="430" height="7" rx="3.5" fill="#ffffff" fill-opacity=".07"></rect>
    <rect x="0" y="102" width="430" height="7" rx="3.5" fill="url(#m-eval)"></rect>
  </g>

  
  <line x1="520" y1="138" x2="520" y2="276" stroke="#ffffff" stroke-opacity=".08"></line>

  
  <g transform="translate(560,150)" class="m" font-size="12">
    <text x="0" y="0" fill="#7d8ea3" letter-spacing="1.5" font-family="Arial, &#34;Helvetica Neue&#34;, Helvetica, &#34;Segoe UI&#34;, system-ui, sans-serif">WHAT IT WANTS ACCESS TO</text>
    
    <g transform="translate(0,18)">
      <g><rect x="0" y="0" width="122" height="30" rx="7" fill="#12a06f" fill-opacity=".12" stroke="#12a06f" stroke-opacity=".4"></rect><circle cx="16" cy="15" r="4" fill="#1fcf9f"></circle><text x="30" y="19" fill="#cdd9e6" font-family="Arial, &#34;Helvetica Neue&#34;, Helvetica, &#34;Segoe UI&#34;, system-ui, sans-serif">read</text><text x="108" y="19" text-anchor="end" fill="#6f8aa0" font-family="Arial, &#34;Helvetica Neue&#34;, Helvetica, &#34;Segoe UI&#34;, system-ui, sans-serif">ok</text></g>
      <g transform="translate(134,0)"><rect x="0" y="0" width="122" height="30" rx="7" fill="#12a06f" fill-opacity=".12" stroke="#12a06f" stroke-opacity=".4"></rect><circle cx="16" cy="15" r="4" fill="#1fcf9f"></circle><text x="30" y="19" fill="#cdd9e6" font-family="Arial, &#34;Helvetica Neue&#34;, Helvetica, &#34;Segoe UI&#34;, system-ui, sans-serif">files</text><text x="108" y="19" text-anchor="end" fill="#6f8aa0" font-family="Arial, &#34;Helvetica Neue&#34;, Helvetica, &#34;Segoe UI&#34;, system-ui, sans-serif">ro</text></g>
      <g transform="translate(268,0)"><rect x="0" y="0" width="122" height="30" rx="7" fill="#f0c66a" fill-opacity=".12" stroke="#f0c66a" stroke-opacity=".4"></rect><circle cx="16" cy="15" r="4" fill="#f0c66a"></circle><text x="30" y="19" fill="#cdd9e6" font-family="Arial, &#34;Helvetica Neue&#34;, Helvetica, &#34;Segoe UI&#34;, system-ui, sans-serif">net</text><text x="108" y="19" text-anchor="end" fill="#a98f54" font-family="Arial, &#34;Helvetica Neue&#34;, Helvetica, &#34;Segoe UI&#34;, system-ui, sans-serif">watch</text></g>
    </g>
    
    <g transform="translate(0,56)">
      <g><rect x="0" y="0" width="122" height="30" rx="7" fill="#f0c66a" fill-opacity=".12" stroke="#f0c66a" stroke-opacity=".4"></rect><circle cx="16" cy="15" r="4" fill="#f0c66a"></circle><text x="30" y="19" fill="#cdd9e6" font-family="Arial, &#34;Helvetica Neue&#34;, Helvetica, &#34;Segoe UI&#34;, system-ui, sans-serif">write</text><text x="108" y="19" text-anchor="end" fill="#a98f54" font-family="Arial, &#34;Helvetica Neue&#34;, Helvetica, &#34;Segoe UI&#34;, system-ui, sans-serif">watch</text></g>
      <g transform="translate(134,0)"><rect x="0" y="0" width="122" height="30" rx="7" fill="#d2453d" fill-opacity=".12" stroke="#d2453d" stroke-opacity=".45"></rect><circle cx="16" cy="15" r="4" fill="#d2453d"></circle><text x="30" y="19" fill="#cdd9e6" font-family="Arial, &#34;Helvetica Neue&#34;, Helvetica, &#34;Segoe UI&#34;, system-ui, sans-serif">shell</text><text x="108" y="19" text-anchor="end" fill="#bd6961" font-family="Arial, &#34;Helvetica Neue&#34;, Helvetica, &#34;Segoe UI&#34;, system-ui, sans-serif">risky</text></g>
      <g transform="translate(268,0)"><rect x="0" y="0" width="122" height="30" rx="7" fill="#d2453d" fill-opacity=".12" stroke="#d2453d" stroke-opacity=".45"></rect><circle cx="16" cy="15" r="4" fill="#d2453d"></circle><text x="30" y="19" fill="#cdd9e6" font-family="Arial, &#34;Helvetica Neue&#34;, Helvetica, &#34;Segoe UI&#34;, system-ui, sans-serif">keys</text><text x="108" y="19" text-anchor="end" fill="#bd6961" font-family="Arial, &#34;Helvetica Neue&#34;, Helvetica, &#34;Segoe UI&#34;, system-ui, sans-serif">risky</text></g>
    </g>
  </g>

  
  <line x1="40" y1="296" x2="960" y2="296" stroke="#ffffff" stroke-opacity=".08"></line>
  <g transform="translate(40,318)">
    <path d="M11 2 L20 6 V13 C20 19 16 23 11 25 C6 23 2 19 2 13 V6 Z" fill="#d2453d" fill-opacity=".16" stroke="#d2453d" stroke-opacity=".55"></path>
    <text x="11" y="17" text-anchor="middle" class="sb" font-size="11" fill="#e8766e" font-family="Arial, &#34;Helvetica Neue&#34;, Helvetica, &#34;Segoe UI&#34;, system-ui, sans-serif">!</text>
    <text x="36" y="11" class="m" font-size="11.5" letter-spacing="1.5" fill="#7d8ea3" font-family="&#34;SFMono-Regular&#34;, Consolas, &#34;Liberation Mono&#34;, Menlo, monospace">GUARD</text>
    <text x="36" y="27" class="sb" font-size="13.5" fill="#eaf1fb" font-family="Arial, &#34;Helvetica Neue&#34;, Helvetica, &#34;Segoe UI&#34;, system-ui, sans-serif">Adoption blocked until a sandbox trial receipt exists.</text>
    <g transform="translate(720,2)">
      <rect x="0" y="0" width="200" height="26" rx="13" fill="#1fcf9f" fill-opacity=".1" stroke="#1fcf9f" stroke-opacity=".35"></rect>
      <text x="100" y="18" text-anchor="middle" class="m" font-size="11.5" fill="#1fcf9f" letter-spacing="1" font-family="&#34;SFMono-Regular&#34;, Consolas, &#34;Liberation Mono&#34;, Menlo, monospace">▸ NEXT: trial --dry-run</text>
    </g>
  </g>
</svg>